<?xml version="1.0" encoding="utf-8"?>
<!-- Generator: Adobe Illustrator 22.1.0, SVG Export Plug-In . SVG Version: 6.00 Build 0)  -->
<svg version="1.1" id="_x30_fa3c922-2890-4e83-a6a7-5bb6074ca9fa"
	 xmlns="http://www.w3.org/2000/svg" xmlns:xlink="http://www.w3.org/1999/xlink" x="0px" y="0px" viewBox="0 0 1145.9 789.4"
	 style="enable-background:new 0 0 1145.9 789.4;" xml:space="preserve">
<style type="text/css">
	.st0{opacity:0.1;fill:#4A73DA;enable-background:new    ;}
	.st1{fill:#65617D;}
	.st2{fill:url(#SVGID_1_);}
	.st3{fill:#EE8E9E;}
	.st4{fill:#DFE5EE;}
	.st5{opacity:0.1;enable-background:new    ;}
	.st6{fill:#D48A9B;}
	.st7{fill:#EFC6CD;}
	.st8{fill:#4A73DA;}
	.st9{fill:#FFFFFF;}
	.st10{fill:#FFD037;}
	.st11{fill:#9D9CB5;}
	.st12{fill:#603556;}
	.st13{fill:#5C5C8E;}
	.st14{opacity:0.1;fill:#FFFFFF;enable-background:new    ;}
	.st15{fill:#EFC8C4;}
	.st16{fill:#727A9C;}
	.st17{opacity:0.15;enable-background:new    ;}
	.st18{fill:#F5F5F5;}
	.st19{fill:#DBDBDB;}
	.st20{opacity:0.5;}
	.st21{fill:#47E6B1;}
	.st22{opacity:0.5;fill:#4D8AF0;enable-background:new    ;}
	.st23{opacity:0.5;fill:#F55F44;enable-background:new    ;}
	.st24{opacity:0.5;fill:#47E6B1;enable-background:new    ;}
</style>
<title>studying</title>
<path class="st0" d="M1128.5,351.5c-0.2,1.1-0.4,2.2-0.6,3.4c-6.8,38.1-17.8,74.9-34.3,108.7c-0.5,1.1-1.1,2.2-1.7,3.4
	c-10.6,21.3-23.5,41.3-38.7,59.6c-8.2,9.9-17.1,19.3-27.8,26.1c-14.9,9.5-32.3,13.4-49.4,16.5c-17.8,3.3-35.8,6-53.8,9
	c-6.4,1-12.7,2.1-19,3.3c-17.4,3.1-34.6,6.8-51.4,11.6c-20.8,6-41,13.7-60,24.7c-1.5,0.9-3,1.8-4.5,2.7c-1.5,0.9-3,1.8-4.5,2.8
	s-2.9,1.9-4.3,2.8l-2.2,1.5c-0.7,0.5-1.5,1-2.2,1.5c-2.1,1.5-4.3,3-6.4,4.5l-0.1,0.1c-1.4,1-2.8,2-4.2,3c-7.8,5.8-15.4,11.8-23,17.9
	l-4.8,3.8c-2.5,2-4.9,3.9-7.4,5.9c-1.5,1.2-2.9,2.3-4.4,3.4c-1.1,0.8-2.1,1.7-3.2,2.5c-5.4,4.2-10.9,8.3-16.5,12.2
	c-1.3,0.9-2.7,1.9-4,2.8c-11.2,7.7-23.1,14.2-35.5,19.6l-0.2,0.1c-6.1,2.6-12.4,4.8-18.9,6.5c-3.7,1-7.4,1.8-11.1,2.4
	c-10,1.7-20.1,1.9-30.2,0.5c-19.7-2.8-38.1-12-57.8-15.1c-40.5-6.3-79.9,14-118,29.9c-9.3,3.9-18.8,7.6-28.3,11
	c-6.3,2.3-12.7,4.5-19,6.5c-38.9,12.6-78.9,21.1-119.5,25.6c-16.6,1.8-33.9,2.7-50.8,1.4c-6.4-0.5-12.7-1.3-19-2.5
	c-21.4-4-41.3-12.5-57.4-28c-13.4-12.7-22.8-29.3-30-46.6c-2.9-7-5.4-14.1-7.6-21.3c-3.5-11.4-6.1-23-7.8-34.8c-0.4-2.7-0.7-5.3-1-8
	c-0.5-4.6-0.9-9.2-1.2-13.8c-1.4-24.6,1-49.2,7.1-73c6.8-26.4,18.2-51.7,23.2-78.3c0.2-1.1,0.4-2.2,0.6-3.4c0.7-4,1.2-8.1,1.5-12.2
	c2.5-32.6-7.2-64.5-14.9-96.4c-0.3-1.1-0.5-2.2-0.8-3.4c-0.8-3.5-1.6-7.1-2.4-10.6c-7.1-33.8-9.1-69.9-2.8-103.6
	c0.2-1.1,0.4-2.3,0.7-3.4c4.3-20.9,11.8-40.7,23.4-58.4c11.9-18.2,27.4-33.3,44-46.5c8.1-6.5,16.5-12.5,25.1-18.2
	c6.2-4,12.6-7.9,19-11.5c52.1-29,111.5-43.2,170.3-40c3.1,0.2,6.2,0.4,9.3,0.6c3.3,0.3,6.5,0.6,9.7,1C438,65.3,474.8,76.1,511.4,88
	c12.3,4,24.5,8,36.7,12c5.4,1.8,10.9,3.5,16.3,5.3c26.7,8.4,53.7,16,81.1,21.7c6.3,1.3,12.7,2.5,19,3.7c22,3.9,44.3,6.2,66.6,6.9
	c8.7,0.2,17.3,0.1,26-0.3c4.4-0.2,8.8-0.5,13.2-0.9c45.3-3.9,89-16.9,132.9-29.1c6.3-1.8,12.7-3.5,19-5.2c8.3-2.2,16.7-4.4,25.1-6.4
	c52.2-12.5,98.7-5.3,147.2,20.5c11,5.9,22,13,28.8,23.9c6.8,11,8.4,24.5,9.7,37.6c1.8,18.6,3,37.4,3.4,56.3c0,1.1,0,2.2,0.1,3.4
	C1137.2,275.6,1134.9,314.2,1128.5,351.5z"/>
<path class="st0" d="M782.4,463.6H779v1.5v1.9h3.9L782.4,463.6z M743.8,463.6C743.8,463.6,743.8,463.6,743.8,463.6l-0.3,2.9v0.3v0.3
	h29.6v-0.2l2.1-3.2H743.8z M664.6,463.6V354.9h34c-0.4-0.3-0.7-0.6-1.1-0.9l-0.5-0.4c-0.2-0.2-0.4-0.3-0.6-0.5s-0.7-0.5-1.1-0.8
	s-0.6-0.4-1-0.6l-0.2-0.1h0h-29.3v-6l-0.8,0.4l-0.8,0.5h-0.1l-0.2,0.1l-0.5,0.3c-0.2,0.1-0.4,0.2-0.5,0.3c-0.5,0.4-1,0.7-1.5,1.1
	l-0.5,0.4c-0.3,0.3-0.7,0.5-1,0.8c-1.3,1.1-2.6,2.2-4,3.3c-0.3,0.3-0.7,0.5-1,0.8c-0.7,0.5-1.5,1-2.3,1.5c-0.3,0.2-0.7,0.4-1,0.5
	l-0.6,0.3l-0.5,0.2l0,0c-1.2,0.5-2.4,0.9-3.7,1.2v106.2h-51c0,0.1,0.1,0.2,0.1,0.3c0.3,1,0.6,2,0.8,3h50.1v116.5h0.8l0.9,0.1
	l1.6,0.1l2.6,0.3l1.2,0.1l1.3,0.2h0.2c0.8,0.1,1.5,0.2,2.3,0.3l0.5,0.1l1.1,0.2l1.6,0.3l0,0l3.8-0.2l0,0l0.5,0.1
	c0.2,0,0.4,0.1,0.6,0.1V466.9h78.8v-0.3v-0.3l0.3-2.8c0,0,0-0.1,0-0.1L664.6,463.6z M782.4,463.6H779v1.5v1.9h3.9L782.4,463.6z
	 M741.6,463.6l-0.3,3.4h32.9l2.2-3.4H741.6z M664.6,463.6V354.9h34c-0.4-0.3-0.7-0.6-1.1-0.9l-0.5-0.4c-0.2-0.2-0.4-0.3-0.6-0.5
	s-0.7-0.5-1.1-0.8s-0.6-0.4-1-0.6l-0.2-0.1H694h-29.3v-6l-0.8,0.4l-0.8,0.5h-0.1l-0.2,0.1l-0.5,0.3c-0.2,0.1-0.4,0.2-0.5,0.3
	c-0.5,0.4-1,0.7-1.5,1.1l-0.5,0.4c-0.3,0.3-0.7,0.5-1,0.8c-1.3,1.1-2.6,2.2-4,3.3c-0.3,0.3-0.7,0.5-1,0.8c-0.7,0.5-1.5,1-2.3,1.5
	c-0.3,0.2-0.7,0.4-1,0.5l-0.6,0.3l-0.5,0.2l0,0c-1.2,0.5-2.4,0.9-3.7,1.2v106.2h-51c0,0.1,0.1,0.2,0.1,0.3c0.3,1,0.6,2,0.8,3h50.1
	v116.5l0.8,0l0.9,0.1l1.6,0.1l2.6,0.3l1.2,0.1l1.3,0.2h0.2c0.8,0.1,1.5,0.2,2.3,0.3l0.5,0.1l1.1,0.2l1.6,0.3l0,0l3.8-0.2l0,0
	l0.5,0.1c0.2,0,0.4,0.1,0.6,0.1V466.9h76.7l0.4-3.4H664.6z M922.3,237.3h214.2c0-1.1,0-2.2-0.1-3.4H922.3V102
	c-6.4,1.7-12.7,3.5-19,5.2v126.7h-233l-0.6-0.6l0.9-1l0,0l86.7-95.1c-8.7,0.4-17.3,0.5-26,0.3l-66.6,73.1v-79.9
	c-6.4-1.1-12.7-2.3-19-3.6v79.9L548.2,100c-12.2-4-24.5-8.1-36.7-12l132.4,145.3l-0.6,0.6H400.2v-173c-3.2-0.4-6.5-0.7-9.7-1
	c-3.1-0.3-6.2-0.5-9.3-0.6v174.6H210.9V99.3c-6.5,3.6-12.8,7.4-19,11.5v123.1H99.3c-0.2,1.1-0.5,2.2-0.7,3.4h93.2v114.3h-88
	c0.3,1.1,0.5,2.2,0.8,3.4h87.3v108.7H118c-0.2,1.1-0.4,2.2-0.6,3.4h74.5v303.9c6.3,1.2,12.6,2,19,2.5V466.9h170.3v279.4
	c6.4-2.1,12.7-4.2,19-6.5V466.9h245.3V711c6.4-1.7,12.7-3.9,18.9-6.5l0.2-0.1V466.9h238.6v114.5c6.3-1.1,12.7-2.2,19-3.3V466.9
	h169.7c0.6-1.1,1.1-2.2,1.7-3.4H922.3V354.9h205.6c0.2-1.1,0.4-2.2,0.6-3.4H922.3V237.3z M210.9,237.3h170.3v114.3H210.9
	L210.9,237.3z M210.9,463.6V354.9h170.3v108.7H210.9z M400.2,237.3h245.3v114.3H400.2L400.2,237.3z M400.2,463.6V354.9h245.3v108.7
	H400.2z M903.2,463.6H664.6V354.9h238.6L903.2,463.6z M903.2,351.6H664.6V240.3l3.3-3.1h235.3L903.2,351.6z M743.8,463.6
	C743.8,463.6,743.8,463.6,743.8,463.6l-0.3,2.9v0.3v0.3h29.6v-0.2l2.1-3.2H743.8z M782.4,463.6H779v1.5v1.9h3.9L782.4,463.6z
	 M664.6,463.6V354.9h34c-0.4-0.3-0.7-0.6-1.1-0.9l-0.5-0.4c-0.2-0.2-0.4-0.3-0.6-0.5s-0.7-0.5-1.1-0.8s-0.6-0.4-1-0.6l-0.2-0.1h0
	h-29.4v-6l-0.8,0.4l-0.8,0.5h-0.1l-0.2,0.1l-0.5,0.3c-0.2,0.1-0.4,0.2-0.5,0.3c-0.5,0.4-1,0.7-1.5,1.1l-0.5,0.4
	c-0.3,0.3-0.7,0.5-1,0.8c-1.3,1.1-2.6,2.2-4,3.3c-0.3,0.3-0.7,0.5-1,0.8c-0.7,0.5-1.5,1-2.3,1.5c-0.3,0.2-0.7,0.4-1,0.5l-0.6,0.3
	l-0.5,0.2l0,0c-1.2,0.5-2.4,0.9-3.7,1.2v106.2h-51c0,0.1,0.1,0.2,0.1,0.3c0.3,1,0.6,2,0.8,3h50.1v116.5h0.8l0.9,0.1l1.6,0.1l2.6,0.3
	l1.2,0.1l1.3,0.2h0.2c0.8,0.1,1.5,0.2,2.3,0.3l0.5,0.1l1.1,0.2l1.6,0.3l0,0l3.8-0.2l0,0l0.5,0.1c0.2,0,0.4,0.1,0.6,0.1V466.9h78.8
	v-0.3v-0.3l0.3-2.8c0,0,0-0.1,0-0.1L664.6,463.6z"/>
<path class="st0" d="M292.8,158.6h1.5c-1.1-0.6-1.7-1.7-1.8-2.9l0,0c0-2.3,2.8-4.2,6.3-4.2h44.1c3.5,0,6.3,1.9,6.3,4.2l0,0
	c0,2.3-2.8,4.2-6.3,4.2h-1.5c1.1,0.6,1.7,1.7,1.8,2.9c0,2-2.1,3.6-4.8,4.1h12.7c3.5,0,6.3,1.9,6.3,4.2s-2.8,4.2-6.3,4.2H307
	c-3.5,0-6.3-1.9-6.3-4.2c0-2,2.1-3.6,4.8-4.1h-12.7c-3.5,0-6.3-1.9-6.3-4.2S289.3,158.6,292.8,158.6z"/>
<path class="st0" d="M771.3,198.6h1.5c-1.1-0.6-1.7-1.7-1.8-2.9l0,0c0-2.3,2.8-4.2,6.3-4.2h44.2c3.5,0,6.3,1.9,6.3,4.2l0,0
	c0,2.3-2.8,4.2-6.3,4.2H820c1.1,0.6,1.7,1.7,1.8,2.9c0,2-2.1,3.6-4.8,4.1h12.7c3.5,0,6.3,1.9,6.3,4.2s-2.8,4.2-6.3,4.2h-44.1
	c-3.5,0-6.3-1.9-6.3-4.2c0-2,2.1-3.6,4.8-4.1h-12.7c-3.5,0-6.3-1.9-6.3-4.2S767.9,198.6,771.3,198.6z"/>
<path class="st0" d="M225,370.1h1.5c-1.1-0.6-1.7-1.7-1.8-2.9l0,0c0-2.3,2.8-4.2,6.3-4.2h44.2c3.5,0,6.3,1.9,6.3,4.2l0,0
	c0,2.3-2.8,4.2-6.3,4.2h-1.5c1.1,0.6,1.7,1.7,1.8,2.9c0,2-2.1,3.6-4.8,4.1h12.7c3.5,0,6.3,1.9,6.3,4.2s-2.8,4.2-6.3,4.2h-44.2
	c-3.5,0-6.3-1.9-6.3-4.2c0-2,2.1-3.6,4.8-4.1H225c-3.5,0-6.3-1.9-6.3-4.2S221.6,370.1,225,370.1z"/>
<path class="st1" d="M735.7,658.2c-2.5,2-4.9,3.9-7.4,5.9c-1.5,1.2-2.9,2.3-4.4,3.4c-1.1,0.8-2.1,1.7-3.2,2.5
	c-5.4,4.2-10.9,8.3-16.5,12.2c-1.3,0.9-2.7,1.9-4,2.8c-11.2,7.7-23.1,14.2-35.5,19.6l-0.2,0.1v-46.4H735.7z"/>
<linearGradient id="SVGID_1_" gradientUnits="userSpaceOnUse" x1="689.5895" y1="135.4074" x2="689.5895" y2="502.4035" gradientTransform="matrix(1 0 0 -1 -70.44 734.71)">
	<stop  offset="0" style="stop-color:#808080;stop-opacity:0.25"/>
	<stop  offset="0.54" style="stop-color:#808080;stop-opacity:0.12"/>
	<stop  offset="1" style="stop-color:#808080;stop-opacity:0.1"/>
</linearGradient>
<path class="st2" d="M846.9,476l1.1-34.5c-0.7-0.5-1.3-1-2-1.5c0.3-10.3-0.3-20.6-1.8-30.8c-4.5-34.5-33.9-35.3-42.2-28.2
	c-1.1,0.9-2.3,1.8-3.6,2.5c0.8-4.9,1.7-9.9,2.3-14.8c3.6-26.3-2-55.9-22.4-72.9c-8.5-7.1-19-11.5-28.4-17.4
	C733.3,267.7,720,252,703,241.7s-40.9-14.2-55.7-0.9c-5.8,5.1-9.5,12.3-15.4,17.2c-11,9.2-28.2,9.9-37.8,20.2l0,0
	c-0.5,0.5-0.9,1-1.4,1.6c-8,10.3-5.8,24.8-3.3,37.5c3.1,15.3,1.8,27.6,14.9,32c0,0.6,0.1,1.2,0.2,1.8c2.2,19,12.6,36.1,28.6,46.7
	l-2.1,0.8c-5.7,2-10.8,3.9-14.1,5.3c-12,4.9-37.3,11.3-37.3,11.3s-0.6,7.2-0.5,17.8c-8.4,9.1-22.5,25.2-26.6,34.8
	c-6,13.9-39.9,53.7-48.9,59.7c-9,6-18.8,13.1-18.8,13.1s-14.3,7.9-21.1,8.6c-4.7,0.5-19.2-2.3-19.2-2.3s-58-71-54.2-16.5
	s50,56.3,50,56.3l46.7-0.8c0,0,25.2,3.4,36.5-6c9.6-8,59.6-51.9,75.7-71.8c0.4,0.4,0.7,0.8,1.1,1.2c0,0,6.4-8.3,7.2,0
	c0.8,8.3-4.2,12-1.5,15s10.5,13.5,10.9,17.7s-10.5,21,7.9,33.8c0.3,0.2,0.6,0.4,0.9,0.6c3.3,7.5,13.8,14.8,13.8,14.8l56.5-0.8
	l106.5,8.3c0,0,3.2-2.8,7.5-7.3c5.7,5.3,13.7,9.8,22.6,7c0,0,12.8-15.4,13.2-25.5c0,0-8.3-21.4-12-27.8s2.6-20.3,2.6-20.3
	s4.5-13.5,7.2-13.5s0.8-9,0.8-9c-2-3-2.4-6.8-1.1-10.1C845.4,486.5,846.9,476,846.9,476z"/>
<path class="st3" d="M783.1,468.2l-4,4.7l0,0l-16.2,18.8l-21.1,1.3l-33.8,2.1c0,0-45.6-54.9-37-66.9c3.1-4.3,3.6-10,3-15.4
	c-0.1-0.7-0.2-1.5-0.3-2.2c-1-5.7-2.8-11.2-5.3-16.4l1.1-0.5l0.7-0.3l39.8-18.2l9.9-4.5c0.5,2.7,1.4,5.3,2.7,7.8
	c0.2,0.4,0.4,0.8,0.6,1.1c13.6,22.5,57.2,8.3,57.2,8.3L783.1,468.2z"/>
<path class="st3" d="M842,440.1c-0.3,13.6-2.5,19.5-2.5,19.5l-56.4,8.6l-2.1-14.6l-8.3-57.8l7.8-7.8c6.3,1.4,13-0.3,17.9-4.5
	c8.2-7.1,37.3-6.4,41.8,28C841.5,420.9,842.1,430.5,842,440.1z"/>
<path class="st4" d="M828.6,599.7c0,0,12.7-15.3,13.1-25.4L829,553l-11.2-12l-20.9,40.4C796.9,581.4,810.7,605.3,828.6,599.7z"/>
<path class="st5" d="M828.6,599.7c0,0,12.7-15.3,13.1-25.4L829,553l-11.2-12l-20.9,40.4C796.9,581.4,810.7,605.3,828.6,599.7z"/>
<path class="st6" d="M723.9,667.5c-1.1,0.8-2.1,1.7-3.2,2.5c-5.4,4.2-10.9,8.3-16.5,12.2c-1.3,0.9-2.7,1.9-4,2.8h-54.6H400.2h-19.1
	l-94.4-3.4l-75.9-0.6l-19-1l-94.8-5c-3.5-11.4-6.1-23.1-7.8-34.9c-0.4-2.7-0.7-5.3-1-8l103.6,5.7l19,1.1l170.3,9.5l19,1.1L645.5,663
	l18.9,1.1h0.2L723.9,667.5z"/>
<path class="st7" d="M851.8,593c-20.8,6-41,13.7-60,24.7c-1.5,0.9-3,1.8-4.5,2.7s-3,1.8-4.5,2.8s-2.9,1.9-4.3,2.8l-2.2,1.5l-2.2,1.5
	c-2.1,1.5-4.3,3-6.4,4.5l-0.1,0.1c-1.4,1-2.8,2-4.2,3c-7.8,5.8-15.4,11.8-23,17.9c-1.6,1.3-3.2,2.6-4.8,3.8l-7.4,5.9
	c-1.5,1.2-2.9,2.3-4.4,3.4c-1.1,0.8-2.1,1.7-3.2,2.5l-56-2.7h-0.2l-18.9-0.9l-245.5-11.6l-19-0.9l-170.3-8.1l-19-0.9L89.3,640
	c-0.4-2.7-0.7-5.3-1-8c-0.5-4.6-0.9-9.2-1.2-13.8l104.8-37l19-6.7l17.3-6.1l31.4,1.6l72.7,3.7l0,0l48.9,2.6l19,1l12.2,0.6l0,0
	l2.9,0.2l0,0l102.4,5.3l0,0l1.1,0.1l0,0l45.7,2.4h0.5h0.3l0,0l4.6,0.2l0,0l15.6,0.8l19.5,1l0,0l6.4,0.3l0,0l1.2,0.1l9.1,0.5l0,0
	l2.6,0.1l0,0l8.7,0.5l0,0l3.5,0.2h0.1h0.7l0,0l8.1,0.4l12.6,0.7h0.1l3.9,0.2h0.4l2.3,0.1l5.7,0.3l0,0l5,0.3h0l5.6,0.3h0.1l4.3,0.2
	l0,0l3.3,0.2l11.6,0.6l0,0l2.1,0.1h0.7l1,0.1l0,0l3.4,0.2l0,0l1.5,0.1l0,0l11.8,0.6h1.1l17.4-0.2h0.1l66.2-0.5l0,0h1.3h1.3h3.9l0,0
	l21.3-0.2h3.2L851.8,593z"/>
<path class="st8" d="M404.8,594.3l6.2,32.8l167.5-2.5c0,0,12.6,3.6,12.3-6.4c0,0,25.5-24.1,154.6,3.9l-49.6-38.9l-135.5,7.3
	l-157.1-4.2L404.8,594.3z"/>
<path class="st9" d="M407.9,586.5l5.9,35.6c0,0,144-4.2,166.6-0.3l-17.1-32.5C563.3,589.3,476.2,581.2,407.9,586.5z"/>
<path class="st5" d="M407.9,586.5l5.9,35.6c0,0,144-4.2,166.6-0.3l-17.1-32.5C563.3,589.3,476.2,581.2,407.9,586.5z"/>
<path class="st9" d="M410,586.4l5.8,33.1c0,0,142.2-3.9,164.6-0.3L563.5,589C563.5,589,477.5,581.4,410,586.4z"/>
<path class="st5" d="M412.6,587.4l5.6,30.9c0,0,139-3.7,161-0.2l-16.5-28.3C562.8,589.8,478.7,582.7,412.6,587.4z"/>
<path class="st9" d="M413.8,586.3l5.7,31c0,0,139.1-3.7,161-0.2l-16.5-28.3C563.9,588.7,479.8,581.6,413.8,586.3z"/>
<path class="st8" d="M315.4,502.1c0,0,7.3,9.5-3.4,23.9c-10.6,14.4-19.4,26.5-15.9,35.5c0,0,16-26.7,29.1-27
	S329.8,518.2,315.4,502.1z"/>
<path class="st5" d="M315.4,502.1c0.6,0.9,1.1,1.9,1.5,3c12.7,15,19.5,29,7.3,29.3c-11.4,0.3-25.1,20.7-28.4,25.9
	c0.1,0.4,0.2,0.8,0.4,1.2c0.2,0.6,16-26.7,29.1-27S329.8,518.2,315.4,502.1z"/>
<path class="st10" d="M328.9,514.3c0,3.3-0.4,6.1-0.8,6.1s-0.8-2.7-0.8-6.1c0-3.3,0.5-1.8,0.9-1.8S328.9,510.9,328.9,514.3z"/>
<path class="st10" d="M333.6,518.2c-2.9,1.6-5.5,2.6-5.7,2.2s2-2,4.9-3.6s1.8-0.4,2,0S336.5,516.6,333.6,518.2z"/>
<path class="st8" d="M277,502.1c0,0-7.3,9.5,3.4,23.9c10.6,14.4,19.4,26.5,15.9,35.5c0,0-16-26.7-29.1-27
	C254,534.1,262.6,518.2,277,502.1z"/>
<path class="st5" d="M277,502.1c-0.6,0.9-1.1,1.9-1.5,3c-12.7,15-19.5,29-7.3,29.3c11.4,0.3,25.1,20.7,28.4,25.9
	c-0.1,0.4-0.2,0.8-0.4,1.2c-0.2,0.6-16-26.7-29.1-27C254,534.1,262.6,518.2,277,502.1z"/>
<path class="st10" d="M263.4,514.3c0,3.3,0.4,6.1,0.8,6.1s0.8-2.7,0.8-6.1c0-3.3-0.5-1.8-0.9-1.8S263.4,510.9,263.4,514.3z"/>
<path class="st10" d="M258.8,518.2c2.9,1.6,5.5,2.6,5.7,2.2s-2-2-4.9-3.6c-2.9-1.6-1.8-0.4-2,0S255.8,516.6,258.8,518.2z"/>
<path class="st1" d="M335.3,548.6l-0.4,3l-0.5,4.2l-0.2,1.8l-0.5,4.2l-0.2,1.8l-0.5,4.2l-5.8,47.7c-0.5,4.3-7.5,7.6-15.9,7.6H281
	c-8.4,0-15.4-3.3-15.9-7.6l-5.8-47.7l-0.5-4.2l-0.2-1.8l-0.5-4.2l-0.2-1.8l-0.5-4.2l-0.4-3c-0.3-2.4,3.5-4.4,8.2-4.4h61.9
	C331.9,544.2,335.6,546.2,335.3,548.6z"/>
<polygon class="st11" points="335,551.6 334.5,555.8 257.9,555.8 257.4,551.6 "/>
<polygon class="st11" points="334.2,557.5 333.7,561.7 258.6,561.7 258.1,557.5 "/>
<polygon class="st11" points="333.5,563.5 333,567.7 259.3,567.7 258.8,563.5 "/>
<path class="st3" d="M427.6,544.8c0,0-19.4-18.7-18.7,5.6S427.6,544.8,427.6,544.8z"/>
<path class="st3" d="M602,502.2c-0.4,1.9-2.5,5-5.8,8.9c-16.8,20.3-64.8,62.4-74.1,70.3c-11.2,9.3-36.2,6-36.2,6l-46.3,0.8
	c0,0-45.9-1.9-49.7-56s53.8,16.4,53.8,16.4s14.4,2.8,19,2.2c6.7-0.7,20.9-8.6,20.9-8.6s9.7-7.1,18.7-13.1s42.6-45.6,48.6-59.4
	c3.8-8.8,16-23.1,24.4-32.4c4.8-5.4,8.4-9,8.4-9S604.6,490.6,602,502.2z"/>
<path class="st5" d="M602,502.2c-0.4,1.9-2.5,5-5.8,8.9c-17-17.3-20.5-51.8-21-73.8c4.8-5.4,8.4-9,8.4-9S604.6,490.6,602,502.2z"/>
<path class="st5" d="M779.1,472.9L779.1,472.9l-16.2,18.8l-21.1,1.3l-33.8,2.1c0,0-45.6-54.9-37-66.9c3.1-4.3,3.6-10,3-15.4
	c-0.1-0.7-0.2-1.5-0.3-2.2c-1-5.7-2.8-11.2-5.3-16.4l1.1-0.5l0.7-0.3c1.8,5,3,10.1,3.7,15.3c0.1,0.7,0.2,1.5,0.3,2.2
	c0.3,2.7,0.7,5.7,1,9c2.6,30.2,21.6,41.6,30.2,45.2c2.8,1.2,5.5,2.5,8.1,3.9c8.3,4.6,17.8,6.3,27.1,4.9
	c21.2-2.8,38.5-18.2,38.5-18.2l0.1,15.1L779.1,472.9z"/>
<path class="st4" d="M779.7,590.3c0,0-138.9-0.4-157.2-13.1s-7.5-29.5-7.8-33.6s-8.2-14.6-10.8-17.6s2.2-6.7,1.5-14.9
	c-0.8-8.2-7.1,0-7.1,0c-26.2-26.5-20.5-93.7-20.5-93.7s25-6.3,37-11.2c3.3-1.3,8.3-3.2,14-5.2l2.1-0.8c14.7-5.3,32.1-11.2,32.1-11.2
	s3.3-2.4,6.7,4.7c1.5,3.3,3.1,8.5,4.3,16.9c0.1,0.7,0.2,1.5,0.3,2.2c0.3,2.7,0.7,5.7,1,9c2.6,30.2,21.6,41.6,30.2,45.2
	c2.8,1.2,5.5,2.5,8.1,3.9c8.3,4.6,17.8,6.3,27.1,4.9c21.2-2.8,38.5-18.2,38.5-18.2l0.1,15.2l0.3,45.5L779.7,590.3z"/>
<path class="st3" d="M773.7,531.3l-2.2,14.2c0,0-55.3,13.8-76.9,17.9s-68.3-1.1-71.7,7.8s14.2,21.3,14.2,21.3l56-0.8l105.7,8.2
	c0,0,40.3-35.5,27.3-60.1S773.7,531.3,773.7,531.3z"/>
<path class="st5" d="M659.9,419.3c0,0-25.4,20.9-20.5,31S659.9,419.3,659.9,419.3z"/>
<path class="st5" d="M628.5,457c0,0-25.8,44.4-24.3,47.8s8.6,15.3,8.2,6.3C612,502.2,628.5,457,628.5,457z"/>
<path class="st5" d="M638.9,464.9c0,0-6,27.6-12,39.2C621,515.6,638.9,464.9,638.9,464.9z"/>
<path class="st5" d="M723.3,379.6c-10,18.4-28.3,30.8-49.1,33.2h-0.1c-16.1,1.9-32.3-2.4-45.5-11.9c15-5.4,34.2-11.9,34.2-11.9
	s3.3-2.4,6.7,4.7l50.4-23C720.5,373.9,721.7,376.9,723.3,379.6z"/>
<path class="st3" d="M731.2,346.5c0,11.2-2.9,22.3-8.5,32.1c-2.7,4.7-5.9,9-9.6,12.8c-10.4,10.8-24.2,17.7-39.2,19.4h-0.1
	c-2.4,0.3-4.8,0.4-7.2,0.4c-32.9,0-60.5-24.7-64.2-57.3c-0.3-2.4-0.4-4.9-0.4-7.3c0-35.7,28.9-64.6,64.6-64.6
	C702.3,281.9,731.2,310.8,731.2,346.5L731.2,346.5z"/>
<path class="st5" d="M773,468.7l6-9c0,0,32.9-39.2,65-14.2l-1.1,34.4c0,0-1.5,10.5-3.7,16c-1.3,3.3-0.9,7.1,1.1,10.1
	c0,0,1.9,9-0.7,9s-7.1,13.4-7.1,13.4s-6.3,13.8-2.6,20.2s12,27.6,12,27.6s-13.1-7.8-16.8-20.9c0,0-31.7-24.7-56.4-9L773,468.7z"/>
<path class="st5" d="M842,440.1c-0.3,13.6-2.5,19.5-2.5,19.5l-56.4,8.6l-2.1-14.6C788.4,445.9,815.2,421.4,842,440.1z"/>
<path class="st4" d="M773,466.7l6-9c0,0,32.9-39.2,65-14.2l-1.1,34.4c0,0-1.5,10.5-3.7,16c-1.3,3.3-0.9,7.1,1.1,10.1
	c0,0,1.9,9-0.7,9s-7.1,13.4-7.1,13.4s-6.3,13.8-2.6,20.2s12,27.6,12,27.6s-13.1-7.8-16.8-20.9c0,0-31.7-24.7-56.4-9L773,466.7z"/>
<path class="st5" d="M826,441.3c0,0-54.1,33.2-51.5,62.4C774.5,503.7,804.7,450.3,826,441.3z"/>
<path class="st5" d="M779.1,472.9l0.3,45.5c-10.2,0.5-19.9-0.9-27.5-7.5c-5.3-4.6-8.4-11-10-17.9c-1.2-5.6-1.6-11.3-1.3-16.9
	c0-0.1,0-0.1,0-0.2c0.6-12.6,3.5-25.1,2-37.6s-9.1-25.7-21.5-28.3c-2.4-0.5-5.2-0.7-6.9-2.5c-1.9-2-1.8-5.1-1.6-7.9l0.4-4.7
	c0.1-1.2,0.1-2.4,0.1-3.6c0-21.9-15.5-40.7-37-44.9l-0.4-0.1c-3.5-0.7-7.1-1.4-10.6-0.6c-6.6,1.5-10.9,8-17,11
	c-11.7,5.8-31.2-0.5-43.5-2.6c-0.8-0.1-1.6-0.3-2.3-0.5c-0.3-2.4-0.4-4.9-0.4-7.3c0-35.7,29-64.6,64.6-64.6s64.6,29,64.6,64.6
	c0,11.2-2.9,22.3-8.5,32c0.2,0.4,0.4,0.8,0.6,1.1c13.6,22.5,57.2,8.3,57.2,8.3l2.6,80.3L779.1,472.9z"/>
<path class="st12" d="M650.4,355.6c6.1-3.1,10.3-9.5,17-11c3.5-0.8,7.1-0.1,10.6,0.6l0.4,0.1c22.8,4.5,38.6,25.4,36.8,48.5l-0.4,4.7
	c-0.2,2.8-0.3,5.9,1.6,7.9c1.7,1.8,4.5,2,6.9,2.5c12.4,2.6,19.9,15.8,21.5,28.3s-1.4,25.2-2,37.8s1.7,26.5,11.3,34.8
	c15,13,37.8,5.6,57.7,4.4c-8.8,0-15.4-9.1-15.8-17.8s3.4-17.1,7.2-25s7.5-16.4,6.6-25.1c-1.1-12-10.6-21.6-14.2-33.2
	c-4.2-13.4-0.2-27.9,1.8-41.8c3.6-26.2-2-55.6-22.3-72.5c-8.5-7.1-18.8-11.4-28.2-17.3c-16.7-10.6-29.9-26.1-46.8-36.4
	s-40.6-14.1-55.3-0.9c-5.7,5.1-9.4,12.2-15.2,17.1c-11.5,9.6-29.7,9.8-38.8,21.7c-7.9,10.2-5.8,24.7-3.2,37.3
	c3.4,16.9,1.5,30,19.5,33C619.2,355.1,638.7,361.5,650.4,355.6z"/>
<path class="st5" d="M798.9,506.2c-14.5,1.8-28.8,2.7-39.3-6.4c-9.5-8.3-11.9-22.2-11.3-34.8s3.5-25.3,2-37.8s-9.1-25.7-21.5-28.3
	c-2.4-0.5-5.2-0.7-6.9-2.5c-1.9-2-1.8-5.1-1.6-7.9l0.4-4.7c1.8-23.2-14-44-36.8-48.5l-0.4-0.1c-3.5-0.7-7.1-1.4-10.6-0.6
	c-6.6,1.5-10.9,8-17,11c-11.7,5.9-31.2-0.5-43.5-2.5c-18-3-16.1-16.1-19.5-33c-1.9-9.4-3.6-19.9-1-28.8c-0.5,0.5-0.9,1-1.4,1.6
	c-7.9,10.2-5.8,24.7-3.2,37.3c3.4,16.9,1.5,30,19.5,33c12.3,2,31.8,8.4,43.5,2.5c6.1-3.1,10.3-9.5,17-11c3.5-0.8,7.1-0.1,10.6,0.6
	l0.4,0.1c22.8,4.5,38.6,25.4,36.8,48.5l-0.4,4.7c-0.2,2.8-0.3,5.9,1.6,7.9c1.7,1.8,4.5,2,6.9,2.5c12.4,2.6,19.9,15.8,21.5,28.3
	s-1.4,25.2-2,37.8s1.7,26.5,11.3,34.8c15,13,37.8,5.6,57.7,4.4C806.3,514.2,801.8,510.8,798.9,506.2z"/>
<path class="st13" d="M393.1,539.5l61.6-23c3-1.1,6.4,0.4,7.5,3.4l0,0c1.1,3-0.4,6.4-3.4,7.5l-61.6,23l-13.2-1.3L393.1,539.5z"/>
<path class="st14" d="M460.4,518.1L460.4,518.1c1.1,3-0.4,6.4-3.5,7.5l-61.7,23.1l-9.9-1l-1.4,1.5l13.2,1.3l61.6-23
	c3-1.1,4.6-4.5,3.4-7.5l0,0c-0.5-1.2-1.3-2.2-2.4-2.9C460.1,517.4,460.3,517.7,460.4,518.1z"/>
<polygon class="st15" points="393.1,539.5 397.2,550.5 386.4,549.4 384,549.2 387.2,545.7 "/>
<path class="st16" d="M387.2,545.7c0.3,0.2,0.5,0.4,0.6,0.7c0.2,0.3,0.2,0.7,0,1.1c-0.2,0.2-0.4,0.3-0.6,0.4
	c-0.5,0.3-0.8,0.9-0.9,1.5l-2.4-0.2L387.2,545.7z"/>
<path class="st9" d="M586.7,609.7c0,0,53.4-11.2,143,3L694.6,587l-63.9-13.1l-45.2,12L586.7,609.7z"/>
<path class="st5" d="M586.7,609.7c0,0,53.4-11.2,143,3L694.6,587l-63.9-13.1l-45.2,12L586.7,609.7z"/>
<path class="st9" d="M580.4,621.8c0,0,26.9-72.7,165,0.2l-49.6-31.9c0,0-118.8-32.8-132.5,5L580.4,621.8z"/>
<path class="st5" d="M580.4,621.8c0,0,26.9-77.8,165,1.4l-49.6-34.6c0,0-118.8-39.2-132.5,1.8L580.4,621.8z"/>
<path class="st9" d="M580.4,621.8c0,0,26.9-78.9,165,0.3l-49.6-34.6c0,0-118.8-38.1-132.5,3L580.4,621.8z"/>
<path class="st5" d="M580.4,621.8c0,0,26.9-87.7,165,1.3l-49.6-38.9c0,0-118.8-40-132.5,6.2L580.4,621.8z"/>
<path class="st9" d="M580.4,621.8c0,0,26.9-88.8,165,0.3l-49.6-38.9c0,0-118.8-40-132.5,6.2L580.4,621.8z"/>
<path class="st0" d="M994.7,613.4c0,0-33.2,35.5-3.3,52.8c0,0,3.9,4.7,9.5,2.2c0,0-1.9-1.7,1.9-4.9c1.3-1.2,2.5-2.5,3.5-3.9
	c1.4-1.9,2.1-4.3,2.1-6.7l0,0c0,0,4.3-14.1-9.5-32.4c0,0-1.3-6.1-2.3-6.8l-2.5,8.5c0,0,6.3,1.6,8.7,6.4c0,0-8.3-6.5-9.2-5.2
	c-0.2,0.3-1.1,4.6-1.1,4.6s11,2.8,14.4,10.4c0,0-8.9-9.1-14.8-8.8l-1.1,6.6c0,0,11.8,2.4,16,10.9c0,0-9.6-9.2-16.2-9.4l-0.2,6.6
	c0,0,11.4,2.6,14.9,9.7c0,0-12.2-9.5-14.9-8.1c0,0,0.2,6.1,1,7.7c0,0,8.2,2,9.8,6.3c0,0-8.8-5.5-9.6-4.7c0,0,2.4,7.9,5.7,11.2
	c0,0-5.2-4.6-6.9-10.8c0,0-2.2,3.9-1.7,7.7c0,0-3.3-3.6,1.1-9.6c0,0-1.6-6.2-1.2-7.2c0,0-5.2,5.3-6.5,10c0,0-1-5.9,6.5-11.7v-6.7
	c0,0-7.2,6.6-8.7,10.7c0,0-0.1-6.2,8.8-12.4l1-6.5c0,0-6.6,5.2-9.3,9.4c0,0,1.1-5.8,9.6-11.3l1.2-4.2c0,0-4.8,3.9-6,5.1
	s-1.7,1-1.7,1c1.9-3.4,4.8-6.1,8.2-7.9C992.2,622.3,995.3,613.7,994.7,613.4z"/>
<path class="st0" d="M1142.9,35.6c0,0-44.3,20-23.4,47.4c0,0,1.8,5.9,7.9,5.7c0,0-1.1-2.3,3.6-3.8c1.7-0.5,3.3-1.3,4.8-2.2
	c2-1.3,3.6-3.1,4.5-5.4l0,0c0,0,9.4-11.3,3.8-33.5c0,0,1.2-6.1,0.5-7.2l-5.6,6.9c0,0,5.2,3.9,5.6,9.3c0,0-5.2-9.3-6.4-8.3
	c-0.3,0.2-2.8,3.8-2.8,3.8s9,6.9,9.3,15.2c0,0-4.7-11.9-10.3-13.8l-3.5,5.7c0,0,9.9,6.8,10.6,16.2c0,0-5.3-12.2-11.3-14.9l-2.7,6
	c0,0,9.6,6.8,10,14.7c0,0-7.6-13.5-10.6-13.2c0,0-2.2,5.7-2,7.5c0,0,6.7,5,6.6,9.6c0,0-6-8.5-7-8c0,0-0.8,8.2,0.9,12.5
	c0,0-3.1-6.3-2.2-12.6c0,0-3.6,2.7-4.5,6.4c0,0-1.6-4.6,4.7-8.4c0,0,0.9-6.3,1.7-7.1c0,0-6.8,2.9-9.8,6.7c0,0,1.3-5.8,10.5-8.3
	l2.6-6.1c0,0-9.2,3.3-12.1,6.5c0,0,2.3-5.8,12.9-8l3.4-5.6c0,0-8.1,2.3-12.2,5.1c0,0,3.3-4.9,13.2-6.7l2.7-3.5c0,0-5.9,1.8-7.6,2.4
	s-2,0.3-2,0.3c3.1-2.4,6.8-3.8,10.7-4.2C1137.3,42.8,1143.3,36,1142.9,35.6z"/>
<path class="st0" d="M722.6,48c0,0-66.5,19-34.2,47.3c0,0,2.9,6,12.1,6c0,0-1.7-2.3,5.4-3.7c2.5-0.5,4.9-1.2,7.2-2.1
	c2.7-1,5.1-2.8,6.6-5.3l0,0c0,0,14-11.2,4.8-33.8c0,0,1.7-6.2,0.5-7.2l-8.3,6.8c0,0,8,4.1,8.7,9.5c0,0-8.1-9.5-10-8.6
	c-0.4,0.2-4.2,3.8-4.2,3.8s13.9,7.2,14.5,15.6c0,0-7.4-12.1-16-14.2l-5.2,5.6c0,0,15.2,7.1,16.5,16.7c0,0-8.4-12.5-17.5-15.4l-4,6
	c0,0,14.6,7.1,15.6,15.1c0,0-11.8-13.9-16.4-13.7c0,0-3.1,5.7-2.8,7.5c0,0,10.3,5.3,10.3,9.9c0,0-9.3-8.7-10.9-8.3
	c0,0-1.1,8.2,1.7,12.7c0,0-4.8-6.4-3.7-12.8c0,0-5.3,2.6-6.6,6.4c0,0-2.6-4.7,6.9-8.4c0,0,1.2-6.4,2.3-7.1c0,0-10.2,2.7-14.7,6.5
	c0,0,1.9-5.9,15.6-8.1l3.8-6.1c0,0-13.8,3.1-18.2,6.3c0,0,3.3-5.8,19.3-7.8l5-5.6c0,0-12.2,2.1-18.3,4.8c0,0,4.8-4.8,19.8-6.4l4-3.4
	c0,0-8.9,1.6-11.4,2.2s-3,0.2-3,0.2c5-2.4,10.5-3.8,16-3.9C714,55.1,723.1,48.4,722.6,48z"/>
<path class="st0" d="M918.9,789.4c0,0,33.5-35.2,3.8-52.7c0,0-3.9-4.7-9.5-2.3c0,0,1.9,1.7-1.9,4.9c-1.3,1.1-2.5,2.4-3.6,3.9
	c-1.4,1.9-2.2,4.3-2.1,6.6l0,0c0,0-4.5,14,9.1,32.5c0,0,1.2,6.1,2.2,6.8l2.6-8.5c0,0-6.3-1.7-8.7-6.5c0,0,8.3,6.6,9.1,5.3
	c0.2-0.3,1.2-4.6,1.2-4.6s-11-3-14.3-10.5c0,0,8.8,9.2,14.7,8.9l1.1-6.6c0,0-11.7-2.5-15.9-11c0,0,9.5,9.3,16.1,9.6l0.3-6.6
	c0,0-11.4-2.8-14.9-9.9c0,0,12.1,9.7,14.8,8.3c0,0-0.1-6.1-1-7.7c0,0-8.1-2.1-9.8-6.4c0,0,8.8,5.6,9.5,4.8c0,0-2.3-7.9-5.6-11.3
	c0,0,5.2,4.6,6.8,10.8c0,0,2.3-3.8,1.7-7.7c0,0,3.2,3.7-1.2,9.6c0,0,1.5,6.2,1.1,7.2c0,0,5.2-5.2,6.6-9.9c0,0,1,5.9-6.6,11.6
	l-0.1,6.7c0,0,7.2-6.5,8.8-10.6c0,0,0,6.2-8.9,12.3l-1,6.5c0,0,6.7-5.2,9.3-9.3c0,0-1.2,5.8-9.7,11.2l-1.2,4.2c0,0,4.8-3.8,6.1-5.1
	s1.7-1,1.7-1c-2,3.3-4.8,6.1-8.3,7.9C921.4,780.6,918.4,789.2,918.9,789.4z"/>
<path class="st0" d="M592.1,1.2c0,0,5.7,48.2,38.2,36.6c0,0,6.1,0.1,7.8-5.8c0,0-2.5,0.4-2.5-4.6c0-1.8-0.3-3.5-0.7-5.2
	c-0.6-2.3-1.9-4.4-3.8-5.9l0,0c0,0-8-12.4-30.9-13.6c0,0-5.5-3-6.7-2.6l4.9,7.4c0,0,5.3-3.8,10.5-2.5c0,0-10.4,2.1-9.8,3.6
	c0.1,0.3,2.8,3.8,2.8,3.8s9.3-6.6,17.3-4.4c0,0-12.7,0.9-16.3,5.7l4.3,5.1c0,0,9.5-7.4,18.7-5.2c0,0-13.3,1.4-17.7,6.3l5,4.4
	c0,0,9.4-7.1,17-5.2c0,0-15.2,3.2-15.8,6.1c0,0,4.8,3.8,6.5,4.2c0,0,6.8-4.9,11.2-3.4c0,0-9.9,3.2-9.8,4.3c0,0,7.5,3.3,12.2,2.9
	c0,0-6.9,1-12.7-1.7c0,0,1.5,4.2,4.8,6.2c0,0-4.9,0.2-6.6-7c0,0-5.8-2.8-6.3-3.7c0,0,0.7,7.3,3.4,11.4c0,0-5.2-3-4.8-12.5l-5-4.3
	c0,0,0.4,9.8,2.6,13.5c0,0-4.8-3.9-3.8-14.7l-4.3-4.9c0,0-0.3,8.4,1.2,13.1c0,0-3.7-4.6-2.4-14.6l-2.5-3.6c0,0-0.1,6.2,0,7.9
	s-0.3,1.9-0.3,1.9c-1.3-3.7-1.6-7.6-0.8-11.4C597.3,8.8,592.6,1,592.1,1.2z"/>
<path class="st0" d="M834.6,680c0,0-46.8-13-48.3,21.4c0,0-2.4,5.6,2.4,9.4c0,0,0.6-2.4,5.2-0.6c1.6,0.6,3.4,1.1,5.1,1.3
	c2.4,0.3,4.8-0.1,6.9-1.3l0,0c0,0,14.5-2.7,24.3-23.3c0,0,4.8-3.9,5-5.2l-8.7,1.7c0,0,1.5,6.4-1.7,10.7c0,0,2-10.4,0.4-10.5
	c-0.3,0-4.6,1.1-4.6,1.1s2.6,11.1-2.5,17.6c0,0,4-12.1,0.9-17.2l-6.3,2.1c0,0,3.3,11.6-2.3,19.2c0,0,3.7-12.8,0.9-18.7l-5.9,2.9
	c0,0,3,11.3-1.7,17.7c0,0,2.8-15.2,0.3-17c0,0-5.3,3-6.3,4.5c0,0,2,8.2-1.1,11.6c0,0,0.8-10.4-0.3-10.7c0,0-5.9,5.7-7.3,10.2
	c0,0,1.7-6.8,6.4-11.1c0,0-4.5-0.2-7.6,2.1c0,0,1.7-4.6,9-3.4c0,0,4.8-4.3,5.8-4.4c0,0-7-2.1-11.8-1.1c0,0,4.8-3.6,13.4,0.3l5.9-3
	c0,0-9.2-3.3-13.5-2.7c0,0,5.5-3,15,2.1l6.2-2.1c0,0-7.7-3.5-12.6-3.8c0,0,5.7-1.7,14.4,3.3l4.3-0.9c0,0-5.7-2.4-7.3-3s-1.7-1-1.7-1
	c3.9,0.2,7.6,1.4,10.8,3.6C825.6,682,834.6,680.6,834.6,680z"/>
<g>
	<path class="st8" d="M317.8,296.9l-3.8,15.8c0,0,7.6,12,70-11.1s62.8-37.3,62.8-37.3l-17.8-12.7l-44.5-11.4L317.8,296.9z"/>
	<path class="st17" d="M317.8,296.9l-3.8,15.8c0,0,7.6,12,70-11.1s62.8-37.3,62.8-37.3l-17.8-12.7l-44.5-11.4L317.8,296.9z"/>
	<polygon class="st8" points="480.9,184.1 387.5,273.7 234.1,274 337.8,172.3 409,178.2 411.6,178.4 	"/>
	<polygon class="st17" points="480.9,184.1 387.5,273.7 234.1,274 337.8,172.3 409,178.2 411.6,178.4 	"/>
	<polygon class="st18" points="428.1,216.7 426.1,217.6 409,178.2 411.6,178.4 	"/>
	<path class="st8" d="M302,249.1l12,63.6c0,0,62.6-48.8,132.8-48.3l-32.3-60.2C414.4,204.1,327.7,224.1,302,249.1z"/>
	
		<ellipse transform="matrix(0.9396 -0.3421 0.3421 0.9396 -49.9837 160.4639)" class="st18" cx="429.8" cy="221.9" rx="10.9" ry="7.5"/>
</g>
<g>
	
		<ellipse transform="matrix(0.5792 -0.8152 0.8152 0.5792 -442.2199 282.4541)" class="st19" cx="52.5" cy="569.6" rx="2.9" ry="2.9"/>
	<g class="st20">
		
			<rect x="135.5" y="220.4" transform="matrix(0.5792 -0.8152 0.8152 0.5792 -120.2898 210.7322)" class="st21" width="17" height="3"/>
		
			<rect x="142.5" y="213.4" transform="matrix(0.5792 -0.8152 0.8152 0.5792 -120.2898 210.7322)" class="st21" width="3" height="17"/>
	</g>
	<g class="st20">
		
			<rect x="379.2" y="383.2" transform="matrix(0.5792 -0.8152 0.8152 0.5792 -150.4094 477.9435)" class="st21" width="17" height="3"/>
		
			<rect x="386.2" y="376.2" transform="matrix(0.5792 -0.8152 0.8152 0.5792 -150.4094 477.9435)" class="st21" width="3" height="17"/>
	</g>
	<g class="st20">
		<rect x="291" y="132.8" transform="matrix(0.5792 -0.8152 0.8152 0.5792 16.5755 300.6153)" class="st21" width="17" height="3"/>
		<rect x="298" y="125.8" transform="matrix(0.5792 -0.8152 0.8152 0.5792 16.5755 300.6153)" class="st21" width="3" height="17"/>
	</g>
	<g class="st20">
		
			<rect x="701.7" y="394.5" transform="matrix(0.5792 -0.8152 0.8152 0.5792 -23.9883 745.5408)" class="st21" width="17" height="3"/>
		
			<rect x="708.7" y="387.5" transform="matrix(0.5792 -0.8152 0.8152 0.5792 -23.9883 745.5408)" class="st21" width="3" height="17"/>
	</g>
	<path class="st22" d="M195,508.3c-1-1.6-0.6-3.7,0.9-4.8c0.1-0.1,0.2-0.2,0.3-0.3l0,0c0.6-0.8,0.5-2-0.3-2.6
		c-0.5-0.4-1.1-0.5-1.7-0.3l0,0c-0.1,0-0.3,0.1-0.4,0.2c-1.6,1-3.7,0.6-4.8-0.9c-0.1-0.1-0.2-0.2-0.3-0.3l0,0
		c-0.8-0.6-2-0.5-2.6,0.3c-0.4,0.5-0.5,1.1-0.3,1.7l0,0c0,0.1,0.1,0.3,0.2,0.4c1,1.6,0.6,3.7-0.9,4.8c-0.1,0.1-0.2,0.2-0.3,0.3l0,0
		c-0.6,0.8-0.5,2,0.3,2.6c0.5,0.4,1.1,0.5,1.7,0.3l0,0c0.1,0,0.3-0.1,0.4-0.2c1.6-1,3.7-0.6,4.8,0.9c0.1,0.1,0.2,0.2,0.3,0.3l0,0
		c0.8,0.6,2,0.5,2.6-0.3c0.4-0.5,0.5-1.1,0.3-1.7l0,0C195.1,508.5,195.1,508.4,195,508.3z"/>
	<path class="st22" d="M481,306.4c-1-1.6-0.6-3.7,0.9-4.8c0.1-0.1,0.2-0.2,0.3-0.3l0,0c0.6-0.8,0.5-2-0.3-2.6
		c-0.5-0.4-1.1-0.5-1.7-0.3l0,0c-0.1,0-0.3,0.1-0.4,0.2c-1.6,1-3.7,0.6-4.8-0.9c-0.1-0.1-0.2-0.2-0.3-0.3l0,0
		c-0.8-0.6-2-0.5-2.6,0.3c-0.4,0.5-0.5,1.1-0.3,1.7l0,0c0,0.1,0.1,0.3,0.2,0.4c1,1.6,0.6,3.7-0.9,4.8c-0.1,0.1-0.2,0.2-0.3,0.3l0,0
		c-0.6,0.8-0.5,2,0.3,2.6c0.5,0.4,1.1,0.5,1.7,0.3l0,0c0.1,0,0.3-0.1,0.4-0.2c1.6-1,3.7-0.6,4.8,0.9c0.1,0.1,0.2,0.2,0.3,0.3l0,0
		c0.8,0.6,2,0.5,2.6-0.3c0.4-0.5,0.5-1.1,0.3-1.7l0,0C481.1,306.7,481.1,306.6,481,306.4z"/>
	<path class="st22" d="M158.8,649.5c-1-1.6-0.6-3.7,0.9-4.8c0.1-0.1,0.2-0.2,0.3-0.3l0,0c0.6-0.8,0.5-2-0.3-2.6
		c-0.5-0.4-1.1-0.5-1.7-0.3l0,0c-0.1,0-0.3,0.1-0.4,0.2c-1.6,1-3.7,0.6-4.8-0.9c-0.1-0.1-0.2-0.2-0.3-0.3l0,0
		c-0.8-0.6-2-0.5-2.6,0.3c-0.4,0.5-0.5,1.1-0.3,1.7l0,0c0,0.1,0.1,0.3,0.2,0.4c1,1.6,0.6,3.7-0.9,4.8c-0.1,0.1-0.2,0.2-0.3,0.3l0,0
		c-0.6,0.8-0.5,2,0.3,2.6c0.5,0.4,1.1,0.5,1.7,0.3l0,0c0.1,0,0.3-0.1,0.4-0.2c1.6-1,3.7-0.6,4.8,0.9c0.1,0.1,0.2,0.2,0.3,0.3l0,0
		c0.8,0.6,2,0.5,2.6-0.3c0.4-0.5,0.5-1.1,0.3-1.7l0,0C159,649.7,158.9,649.6,158.8,649.5z"/>
	<circle class="st23" cx="364.7" cy="725.3" r="6"/>
	<circle class="st22" cx="434.3" cy="530.6" r="6"/>
	<circle class="st24" cx="118.2" cy="445.4" r="6"/>
	<circle class="st23" cx="258.8" cy="398.5" r="6"/>
</g>
</svg>
