<?xml version="1.0" encoding="utf-8"?>
<!-- Generator: Adobe Illustrator 22.1.0, SVG Export Plug-In . SVG Version: 6.00 Build 0)  -->
<svg version="1.1" id="a4fbd1e2-edc2-431c-b11d-f5395f4f8a37"
	 xmlns="http://www.w3.org/2000/svg" xmlns:xlink="http://www.w3.org/1999/xlink" x="0px" y="0px" viewBox="0 0 670 480.4"
	 style="enable-background:new 0 0 670 480.4;" xml:space="preserve">
<style type="text/css">
	.st0{display:none;}
	.st1{display:inline;opacity:0.17;fill:#BBDEFB;}
	.st2{display:inline;opacity:0.17;fill:#0D47A1;}
	.st3{opacity:0.5;}
	.st4{fill:#DBDBDB;}
	.st5{fill:#47E6B1;}
	.st6{opacity:0.5;fill:#4D8AF0;enable-background:new    ;}
	.st7{opacity:0.5;fill:#F55F44;enable-background:new    ;}
	.st8{opacity:0.5;fill:#47E6B1;enable-background:new    ;}
</style>
<title>fitting_pieces</title>
<g class="st0">
	<circle class="st1" cx="273.7" cy="311.5" r="61.3"/>
	<circle class="st1" cx="553.2" cy="357.9" r="33.2"/>
	<path class="st2" d="M472.7,240.8c-36.7,0-66.6-29.9-66.6-66.6s29.9-66.6,66.6-66.6s66.6,29.9,66.6,66.6S509.5,240.8,472.7,240.8z
		 M472.7,108.5c-36.3,0-65.8,29.5-65.8,65.8s29.5,65.7,65.8,65.7s65.8-29.5,65.8-65.8S509,108.5,472.7,108.5L472.7,108.5z"/>
</g>
<g class="st3">
	
		<ellipse transform="matrix(0.7182 -0.6958 0.6958 0.7182 -102.5551 453.7371)" class="st4" cx="508.9" cy="353.5" rx="2.6" ry="2.6"/>
	<g class="st3">
		
			<rect x="269.4" y="374.2" transform="matrix(0.7289 -0.6846 0.6846 0.7289 -182.0323 291.4768)" class="st5" width="15.2" height="2.7"/>
		
			<rect x="275.7" y="368" transform="matrix(0.7289 -0.6846 0.6846 0.7289 -182.0323 291.4768)" class="st5" width="2.7" height="15.2"/>
	</g>
	<g class="st3">
		
			<rect x="197" y="220.6" transform="matrix(0.587 -0.8096 0.8096 0.587 -102.8618 254.8162)" class="st5" width="2.7" height="15.2"/>
		
			<rect x="190.7" y="226.9" transform="matrix(0.587 -0.8096 0.8096 0.587 -102.8618 254.8162)" class="st5" width="15.2" height="2.7"/>
	</g>
	<g class="st3">
		
			<rect x="110.1" y="63.2" transform="matrix(0.2082 -0.9781 0.9781 0.2082 30.0746 166.1322)" class="st5" width="15.2" height="2.7"/>
		
			<rect x="116.3" y="56.9" transform="matrix(0.2082 -0.9781 0.9781 0.2082 30.0746 166.1322)" class="st5" width="2.7" height="15.2"/>
	</g>
	<g class="st3">
		
			<rect x="415.4" y="279.8" transform="matrix(0.587 -0.8096 0.8096 0.587 -60.5285 456.1104)" class="st5" width="2.7" height="15.2"/>
		
			<rect x="409.2" y="286" transform="matrix(0.587 -0.8096 0.8096 0.587 -60.5285 456.1104)" class="st5" width="15.2" height="2.7"/>
	</g>
	<path class="st6" d="M156.4,309.1c-1.6,0.6-3.3-0.1-4.1-1.6c-0.1-0.1-0.1-0.2-0.2-0.3l0,0c-0.6-0.7-1.6-0.8-2.3-0.2
		c-0.4,0.4-0.6,0.9-0.6,1.5l0,0c0,0.1,0,0.2,0.1,0.4c0.6,1.6-0.1,3.3-1.6,4.1c-0.1,0.1-0.2,0.1-0.3,0.2l0,0
		c-0.7,0.6-0.8,1.6-0.2,2.3c0.4,0.4,0.9,0.6,1.5,0.6l0,0c0.1,0,0.2,0,0.4-0.1c1.6-0.6,3.3,0.1,4.1,1.6c0.1,0.1,0.1,0.2,0.2,0.3l0,0
		c0.6,0.7,1.6,0.8,2.3,0.2c0.4-0.4,0.6-0.9,0.6-1.5l0,0c0-0.1,0-0.2-0.1-0.4c-0.6-1.6,0.1-3.3,1.6-4.1c0.1-0.1,0.2-0.1,0.3-0.2l0,0
		c0.7-0.6,0.8-1.6,0.2-2.3c-0.4-0.4-0.9-0.6-1.5-0.6l0,0C156.6,309,156.5,309.1,156.4,309.1z"/>
	<path class="st6" d="M237.9,80c-1.4-1-1.8-2.8-1-4.3c0.1-0.1,0.1-0.2,0.1-0.3l0,0c0.2-0.9-0.3-1.8-1.1-2c-0.5-0.1-1.1,0-1.5,0.3
		l0,0c-0.1,0.1-0.2,0.2-0.2,0.3c-1,1.4-2.8,1.8-4.3,1c-0.1-0.1-0.2-0.1-0.3-0.1l0,0c-0.9-0.2-1.8,0.3-2,1.1c-0.1,0.5,0,1.1,0.3,1.5
		l0,0c0.1,0.1,0.2,0.2,0.3,0.2c1.4,1,1.8,2.8,1,4.3c-0.1,0.1-0.1,0.2-0.1,0.3l0,0c-0.2,0.9,0.3,1.8,1.1,2c0.5,0.1,1.1,0,1.5-0.3l0,0
		c0.1-0.1,0.2-0.2,0.2-0.3c1-1.4,2.8-1.8,4.3-1c0.1,0.1,0.2,0.1,0.3,0.1l0,0c0.9,0.2,1.8-0.3,2-1.1c0.1-0.5,0-1.1-0.3-1.5l0,0
		C238.1,80.2,238,80.1,237.9,80z"/>
	<path class="st6" d="M596.4,273.1c-1.6,0.6-3.3-0.1-4.1-1.6c-0.1-0.1-0.1-0.2-0.2-0.3l0,0c-0.6-0.7-1.6-0.8-2.3-0.2
		c-0.4,0.4-0.6,0.9-0.6,1.5l0,0c0,0.1,0,0.2,0.1,0.4c0.6,1.6-0.1,3.3-1.6,4.1c-0.1,0.1-0.2,0.1-0.3,0.2l0,0
		c-0.7,0.6-0.8,1.6-0.2,2.3c0.4,0.4,0.9,0.6,1.5,0.6l0,0c0.1,0,0.2,0,0.4-0.1c1.6-0.6,3.3,0.1,4.1,1.6c0.1,0.1,0.1,0.2,0.2,0.3l0,0
		c0.6,0.7,1.6,0.8,2.3,0.2c0.4-0.4,0.6-0.9,0.6-1.5l0,0c0-0.1,0-0.2-0.1-0.4c-0.6-1.6,0.1-3.3,1.6-4.1c0.1-0.1,0.2-0.1,0.3-0.2l0,0
		c0.7-0.6,0.8-1.6,0.2-2.3c-0.4-0.4-0.9-0.6-1.5-0.6l0,0C596.6,273.1,596.5,273.1,596.4,273.1z"/>
	<circle class="st7" cx="109.1" cy="418.3" r="5.4"/>
	<circle class="st6" cx="321" cy="190.4" r="5.4"/>
	<circle class="st8" cx="265.6" cy="297.5" r="5.4"/>
	<circle class="st7" cx="445.6" cy="78.2" r="5.4"/>
</g>
</svg>
