<?xml version="1.0" encoding="utf-8"?>
<!-- Generator: Adobe Illustrator 22.1.0, SVG Export Plug-In . SVG Version: 6.00 Build 0)  -->
<svg version="1.1" id="a4fbd1e2-edc2-431c-b11d-f5395f4f8a37"
	 xmlns="http://www.w3.org/2000/svg" xmlns:xlink="http://www.w3.org/1999/xlink" x="0px" y="0px" viewBox="0 0 836.3 674.2"
	 style="enable-background:new 0 0 836.3 674.2;" xml:space="preserve">
<style type="text/css">
	.st0{opacity:0.1;fill:#4A73DA;enable-background:new    ;}
	.st1{fill:#3F3D56;}
	.st2{fill:#FF6584;}
	.st3{fill:#4A73DA;}
	.st4{fill:#FFFFFF;}
	.st5{opacity:0.2;enable-background:new    ;}
	.st6{display:none;}
	.st7{display:inline;fill:#BBDEFB;}
	.st8{display:inline;opacity:0.5;fill:#007BFF;enable-background:new    ;}
	.st9{display:inline;fill:#0D47A1;}
	.st10{fill:#DBDBDB;}
	.st11{opacity:0.5;}
	.st12{fill:#47E6B1;}
	.st13{opacity:0.5;fill:#4D8AF0;enable-background:new    ;}
	.st14{opacity:0.5;fill:#F55F44;enable-background:new    ;}
	.st15{opacity:0.5;fill:#47E6B1;enable-background:new    ;}
</style>
<title>fitting_pieces</title>
<g>
	<path class="st0" d="M839.3,591.2l-122.9,1.3h-1.3l-10.5,0.1l-9,0.1l-27.6,0.3h-1.1l-14.1,0.2h-0.4l-86.7,0.9l-77.4,0.8l-9,0.1
		l-55.9,0.6h-0.1l-36.3,0.4h-0.4l-114.7,1.2l-34.3,0.4c-7.3,0.1-14.6-1-21.6-3.1c-12.2-3.7-23.1-10.6-31.7-20.1
		c-14.7-16.2-25.5-35.2-32.7-55.7c-1-3-2-6-2.9-9c-25-84.4,5.5-193.3,60.3-266.2c2.3-3,4.6-6,7-8.9l0.1-0.1
		c16.9-20.7,35.7-38,55.9-50.3c35.7-21.8,75.2-28,114.1-9.6c32.9,15.5,63.6,22.8,93.4,24.8c3,0.2,6,0.3,9,0.4
		c68.3,2.1,132.3-22.5,207.4-38.3c3-0.6,6-1.3,9-1.8c40.2-8,132.8-10.3,132.8-10.3L839.3,591.2z"/>
	<g>
		<path class="st1" d="M257.6,587.6H256c0-42.1-34.1-76.2-76.2-76.2s-76.2,34.1-76.2,76.2H102c0-43,34.8-77.8,77.8-77.8
			S257.6,544.6,257.6,587.6z"/>
		<path class="st1" d="M821.8,587.6h-1.6c0-42.1-34.1-76.2-76.2-76.2c-42.1,0-76.2,34.1-76.2,76.2h-1.6c0-43,34.8-77.8,77.8-77.8
			S821.8,544.6,821.8,587.6z"/>
		<path class="st1" d="M631.3,402h-1.6c0-76.9-62.5-139.4-139.4-139.4c-76.9,0-139.4,62.5-139.4,139.4h-1.6c0-77.8,63.3-141,141-141
			C568.1,260.9,631.3,324.2,631.3,402z"/>
		<circle class="st2" cx="219.9" cy="233" r="32"/>
		<polygon class="st1" points="226.7,453.4 281.8,387.9 389.9,387.9 456,452.2 454.7,453.1 455.1,453.1 455.1,587 226.8,587 
			226.8,453.1 		"/>
		<rect x="259.8" y="381.7" class="st1" width="12.5" height="43.2"/>
		<polygon class="st3" points="280.9,387 348.7,466.5 348.7,587 226.8,587 226.8,451.4 		"/>
		<rect x="308.1" y="482.3" class="st1" width="24.9" height="25.5"/>
		<rect x="308.1" y="516.9" class="st1" width="24.9" height="25.5"/>
		<rect x="308.1" y="482.3" class="st4" width="24.9" height="25.5"/>
		<rect x="308.1" y="516.9" class="st4" width="24.9" height="25.5"/>
		<rect x="273.7" y="482.3" class="st1" width="24.9" height="25.5"/>
		<rect x="273.7" y="516.9" class="st1" width="24.9" height="25.5"/>
		<rect x="273.7" y="482.3" class="st4" width="24.9" height="25.5"/>
		<rect x="273.7" y="516.9" class="st4" width="24.9" height="25.5"/>
		<rect x="239.3" y="482.3" class="st1" width="24.9" height="25.5"/>
		<rect x="239.3" y="516.9" class="st1" width="24.9" height="25.5"/>
		<rect x="239.3" y="482.3" class="st4" width="24.9" height="25.5"/>
		<rect x="239.3" y="516.9" class="st4" width="24.9" height="25.5"/>
		<rect x="495.1" y="233.4" class="st3" width="11.3" height="28.4"/>
		<rect x="409.2" y="259.3" class="st3" width="96.5" height="328.3"/>
		<rect x="505.7" y="259.3" class="st1" width="38.9" height="328.3"/>
		<rect x="426.7" y="287.7" class="st4" width="14.6" height="14.6"/>
		<rect x="450.2" y="287.7" class="st4" width="14.6" height="14.6"/>
		<rect x="473.7" y="287.7" class="st4" width="14.6" height="14.6"/>
		<rect x="427.1" y="320.9" class="st4" width="14.6" height="14.6"/>
		<rect x="450.6" y="320.9" class="st4" width="14.6" height="14.6"/>
		<rect x="474.1" y="320.9" class="st4" width="14.6" height="14.6"/>
		<rect x="427.5" y="354.2" class="st4" width="14.6" height="14.6"/>
		<rect x="451" y="354.2" class="st4" width="14.6" height="14.6"/>
		<rect x="474.5" y="354.2" class="st4" width="14.6" height="14.6"/>
		<rect x="427.9" y="387.4" class="st4" width="14.6" height="14.6"/>
		<rect x="451.4" y="387.4" class="st4" width="14.6" height="14.6"/>
		<rect x="474.9" y="387.4" class="st4" width="14.6" height="14.6"/>
		<rect x="428.3" y="420.6" class="st4" width="14.6" height="14.6"/>
		<rect x="451.8" y="420.6" class="st4" width="14.6" height="14.6"/>
		<rect x="475.3" y="420.6" class="st4" width="14.6" height="14.6"/>
		<rect x="428.7" y="453.9" class="st4" width="14.6" height="14.6"/>
		<rect x="452.2" y="453.9" class="st4" width="14.6" height="14.6"/>
		<rect x="475.7" y="453.9" class="st4" width="14.6" height="14.6"/>
		<rect x="429.1" y="487.1" class="st4" width="14.6" height="14.6"/>
		<rect x="452.6" y="487.1" class="st4" width="14.6" height="14.6"/>
		<rect x="476.1" y="487.1" class="st4" width="14.6" height="14.6"/>
		<rect x="429.5" y="520.3" class="st4" width="14.6" height="14.6"/>
		<rect x="453" y="520.3" class="st4" width="14.6" height="14.6"/>
		<rect x="453" y="559.2" class="st4" width="14.6" height="27.6"/>
		<rect x="476.5" y="520.3" class="st4" width="14.6" height="14.6"/>
		<rect x="505.7" y="233.4" class="st1" width="6.5" height="27.6"/>
		<rect x="616.7" y="377.7" class="st3" width="11.3" height="16.8"/>
		<rect x="530.8" y="393" class="st3" width="96.5" height="194.6"/>
		<rect x="627.3" y="393" class="st1" width="38.9" height="194.6"/>
		<rect x="549.9" y="420.6" class="st4" width="14.6" height="14.6"/>
		<rect x="573.4" y="420.6" class="st4" width="14.6" height="14.6"/>
		<rect x="596.9" y="420.6" class="st4" width="14.6" height="14.6"/>
		<rect x="550.3" y="453.9" class="st4" width="14.6" height="14.6"/>
		<rect x="573.8" y="453.9" class="st4" width="14.6" height="14.6"/>
		<rect x="597.3" y="453.9" class="st4" width="14.6" height="14.6"/>
		<rect x="550.7" y="487.1" class="st4" width="14.6" height="14.6"/>
		<rect x="574.2" y="487.1" class="st4" width="14.6" height="14.6"/>
		<rect x="597.7" y="487.1" class="st4" width="14.6" height="14.6"/>
		<rect x="551.1" y="520.3" class="st4" width="14.6" height="14.6"/>
		<rect x="574.6" y="520.3" class="st4" width="14.6" height="14.6"/>
		<rect x="574.6" y="559.2" class="st4" width="14.6" height="27.6"/>
		<rect x="598.1" y="520.3" class="st4" width="14.6" height="14.6"/>
		<rect x="627.3" y="377.7" class="st1" width="6.5" height="16.3"/>
		<rect x="102.2" y="586.6" class="st1" width="719.8" height="1.8"/>
		<circle class="st3" cx="695.9" cy="528.5" r="21.1"/>
		<path class="st5" d="M711.6,514.4c4.6,10.7-0.4,23.1-11.1,27.7c-8.3,3.6-18,1.4-24.1-5.4c4.6,10.7,17,15.7,27.7,11.1
			c10.7-4.6,15.7-17,11.1-27.7C714.4,518,713.1,516.1,711.6,514.4L711.6,514.4z"/>
		<polygon class="st1" points="696,528.5 696,528.5 697.1,588.3 694.9,588.3 		"/>
		
			<rect x="695.8" y="561" transform="matrix(0.8849 -0.4659 0.4659 0.8849 -181.246 389.7412)" class="st1" width="3.9" height="1"/>
		<circle class="st3" cx="758" cy="497.3" r="32.1"/>
		<path class="st5" d="M781.8,475.9c7,16.3-0.6,35.2-16.9,42.1c-12.7,5.4-27.4,2.1-36.6-8.2c7,16.3,25.8,23.9,42.1,16.9
			c16.3-7,23.9-25.8,16.9-42.1C786,481.4,784.2,478.5,781.8,475.9z"/>
		<polygon class="st1" points="758.1,497.3 758.1,497.3 759.7,588.3 756.4,588.3 		"/>
		
			<rect x="757.9" y="546.8" transform="matrix(0.8849 -0.4659 0.4659 0.8849 -167.4869 417.5103)" class="st1" width="6" height="1.6"/>
		<circle class="st3" cx="123.6" cy="527.7" r="21.1"/>
		<path class="st5" d="M139.3,513.6c4.6,10.7-0.4,23.1-11.1,27.7c-8.3,3.6-18,1.4-24.1-5.4c4.6,10.7,17,15.7,27.7,11.1
			c10.7-4.6,15.7-17,11.1-27.7C142.1,517.2,140.8,515.3,139.3,513.6L139.3,513.6z"/>
		<polygon class="st1" points="123.7,527.7 123.7,527.7 124.8,587.5 122.6,587.5 		"/>
		
			<rect x="123.6" y="560.2" transform="matrix(0.8849 -0.4659 0.4659 0.8849 -246.7632 123.0387)" class="st1" width="3.9" height="1"/>
		<path class="st1" d="M593.6,231.2l7.5-6c-5.8-0.6-8.2,2.5-9.2,5c-4.5-1.9-9.5,0.6-9.5,0.6l14.9,5.4
			C596.6,234.3,595.3,232.5,593.6,231.2z"/>
		<path class="st1" d="M219.1,261.2l7.5-6c-5.8-0.6-8.2,2.5-9.2,5c-4.5-1.9-9.5,0.6-9.5,0.6l14.9,5.4
			C222.1,264.3,220.8,262.5,219.1,261.2z"/>
		<path class="st1" d="M707.1,292l7.5-6c-5.8-0.6-8.2,2.5-9.2,5c-4.5-1.9-9.5,0.6-9.5,0.6l14.9,5.4
			C710.1,295.1,708.8,293.3,707.1,292z"/>
		<path class="st1" d="M280.7,245l7.5-6c-5.8-0.6-8.2,2.5-9.2,5c-4.5-1.9-9.5,0.6-9.5,0.6l14.9,5.4C283.7,248,282.4,246.3,280.7,245
			z"/>
		<path class="st1" d="M294.5,309.8l7.5-6c-5.8-0.6-8.2,2.5-9.2,5c-4.5-1.9-9.5,0.6-9.5,0.6l14.9,5.4
			C297.5,312.9,296.2,311.1,294.5,309.8z"/>
		<path class="st1" d="M584.7,343.9l7.5-6c-5.8-0.6-8.2,2.5-9.2,5c-4.5-1.9-9.5,0.6-9.5,0.6l14.9,5.4
			C587.7,346.9,586.4,345.2,584.7,343.9z"/>
		<polygon class="st1" points="187.9,570.6 137.7,570.6 137.7,572.2 145.5,572.2 145.5,587.6 147.1,587.6 147.1,572.2 177.7,572.2 
			177.7,587.6 179.3,587.6 179.3,572.2 187.9,572.2 		"/>
		<path class="st1" d="M239,577.1c-2,0-3.9,0.5-5.6,1.5c-5-4.5-12.7-4.1-17.2,0.9c-2,2.2-3.1,5.1-3.1,8.2h37.2
			C249.9,581.7,244.9,577.1,239,577.1z"/>
		<path class="st1" d="M431.1,577.1c-2,0-3.9,0.5-5.6,1.5c-5-4.5-12.7-4.1-17.2,0.9c-2,2.2-3.1,5.1-3.1,8.2h37.2
			C442,581.7,437.1,577.1,431.1,577.1z"/>
		<path class="st1" d="M556.8,577.1c-2,0-3.9,0.5-5.6,1.5c-5-4.5-12.7-4.1-17.2,0.9c-2,2.2-3.1,5.1-3.1,8.2h37.2
			C567.6,581.7,562.7,577.1,556.8,577.1z"/>
		<path class="st1" d="M722.1,577.1c-2,0-3.9,0.5-5.6,1.5c-5-4.5-12.7-4.1-17.2,0.9c-2,2.2-3.1,5.1-3.1,8.2h37.2
			C733,581.7,728.1,577.1,722.1,577.1z"/>
		<path class="st1" d="M801.6,577.1c-2,0-3.9,0.5-5.6,1.5c-5-4.5-12.7-4.1-17.2,0.9c-2,2.2-3.1,5.1-3.1,8.2h37.2
			C812.4,581.7,807.5,577.1,801.6,577.1z"/>
		<polygon class="st1" points="206.6,530.9 193.6,530.9 193.6,543.8 199.6,543.8 199.6,587.5 201.2,587.5 201.2,543.8 206.6,543.8 
					"/>
		<rect x="137.8" y="565.7" class="st1" width="50.3" height="1.6"/>
		<rect x="137.8" y="561.7" class="st1" width="50.3" height="1.6"/>
		<rect x="137.8" y="557.6" class="st1" width="50.3" height="1.6"/>
	</g>
</g>
<g class="st6">
	<circle class="st7" cx="375.4" cy="546.6" r="106.3"/>
	<circle class="st8" cx="392.7" cy="531" r="106.3"/>
	<rect x="124.9" y="437.7" class="st7" width="93.3" height="93.3"/>
	<rect x="111" y="424.8" class="st8" width="93.3" height="93.3"/>
	<path class="st9" d="M185.3,379v122.7H62.7V379H185.3L185.3,379z M183.6,499.9V380.7H64.4v119.2H183.6z"/>
	<rect x="248.4" y="318.4" class="st7" width="86" height="83.2"/>
	<rect x="256.5" y="301.3" class="st8" width="28.9" height="28"/>
	<path class="st9" d="M409.1,351.6v39.7h-39.7v-39.7H409.1z M407.4,389.6v-36.3h-36.3v36.3H407.4z"/>
	<path class="st9" d="M472.7,689.1c-72.9,0-132.2-59.3-132.2-132.2s59.3-132.1,132.2-132.1S604.9,484.1,604.9,557
		S545.6,689.1,472.7,689.1z M472.7,426.5c-72,0-130.5,58.5-130.5,130.5s58.5,130.4,130.5,130.4s130.5-58.5,130.5-130.5
		S544.7,426.5,472.7,426.5L472.7,426.5z"/>
</g>
<g>
	<ellipse transform="matrix(0.9946 -0.104 0.104 0.9946 -13.2119 44.9376)" class="st10" cx="424.1" cy="149.1" rx="2" ry="2"/>
	<g class="st11">
		<rect x="474.7" y="33.9" transform="matrix(0.9946 -0.104 0.104 0.9946 -1.5374 49.7085)" class="st12" width="2" height="11.5"/>
		<rect x="470" y="38.6" transform="matrix(0.9946 -0.104 0.104 0.9946 -1.5374 49.7085)" class="st12" width="11.5" height="2"/>
	</g>
	<g class="st11">
		
			<rect x="110.4" y="205.7" transform="matrix(0.3302 -0.9439 0.9439 0.3302 -117.3172 248.1244)" class="st12" width="11.5" height="2"/>
		
			<rect x="115.2" y="201" transform="matrix(0.3302 -0.9439 0.9439 0.3302 -117.3172 248.1244)" class="st12" width="2" height="11.5"/>
	</g>
	<g class="st11">
		
			<rect x="296.9" y="153.6" transform="matrix(0.9946 -0.104 0.104 0.9946 -14.9557 31.8617)" class="st12" width="2" height="11.5"/>
		
			<rect x="292.2" y="158.3" transform="matrix(0.9946 -0.104 0.104 0.9946 -14.9557 31.8617)" class="st12" width="11.5" height="2"/>
	</g>
	<g class="st11">
		
			<rect x="115" y="376.5" transform="matrix(0.3302 -0.9439 0.9439 0.3302 -275.4668 366.7678)" class="st12" width="11.5" height="2"/>
		
			<rect x="119.7" y="371.7" transform="matrix(0.3302 -0.9439 0.9439 0.3302 -275.4668 366.7678)" class="st12" width="2" height="11.5"/>
	</g>
	<path class="st13" d="M311.4,226.4c1.2,0.4,1.9,1.6,1.7,2.8c0,0.1,0,0.2,0,0.3l0,0c0,0.7,0.6,1.2,1.3,1.2c0.4,0,0.8-0.2,1-0.6l0,0
		c0-0.1,0.1-0.2,0.1-0.3c0.4-1.2,1.6-1.9,2.8-1.7c0.1,0,0.2,0,0.3,0l0,0c0.7,0,1.2-0.6,1.2-1.3c0-0.4-0.2-0.8-0.6-1l0,0
		c-0.1,0-0.2-0.1-0.3-0.1c-1.2-0.4-1.9-1.6-1.7-2.8c0-0.1,0-0.2,0-0.3l0,0c0-0.7-0.6-1.2-1.3-1.2c-0.4,0-0.8,0.2-1,0.6l0,0
		c0,0.1-0.1,0.2-0.1,0.3c-0.4,1.2-1.6,1.9-2.8,1.7c-0.1,0-0.2,0-0.3,0l0,0c-0.7,0-1.2,0.6-1.2,1.3c0,0.4,0.2,0.8,0.6,1l0,0
		C311.3,226.4,311.4,226.4,311.4,226.4z"/>
	<path class="st13" d="M208,176.2c1.2,0.4,1.9,1.6,1.7,2.8c0,0.1,0,0.2,0,0.3l0,0c0,0.7,0.6,1.2,1.3,1.2c0.4,0,0.8-0.2,1-0.6l0,0
		c0-0.1,0.1-0.2,0.1-0.3c0.4-1.2,1.6-1.9,2.8-1.7c0.1,0,0.2,0,0.3,0l0,0c0.7,0,1.2-0.6,1.2-1.3c0-0.4-0.2-0.8-0.6-1l0,0
		c-0.1,0-0.2-0.1-0.3-0.1c-1.2-0.4-1.9-1.6-1.7-2.8c0-0.1,0-0.2,0-0.3l0,0c0-0.7-0.6-1.2-1.3-1.2c-0.4,0-0.8,0.2-1,0.6l0,0
		c0,0.1-0.1,0.2-0.1,0.3c-0.4,1.2-1.6,1.9-2.8,1.7c-0.1,0-0.2,0-0.3,0l0,0c-0.7,0-1.2,0.6-1.2,1.3c0,0.4,0.2,0.8,0.6,1l0,0
		C207.8,176.1,207.9,176.1,208,176.2z"/>
	<path class="st13" d="M420.3,268.6c1.2,0.4,1.9,1.6,1.7,2.8c0,0.1,0,0.2,0,0.3l0,0c0,0.7,0.6,1.2,1.3,1.2c0.4,0,0.8-0.2,1-0.6l0,0
		c0-0.1,0.1-0.2,0.1-0.3c0.4-1.2,1.6-1.9,2.8-1.7c0.1,0,0.2,0,0.3,0l0,0c0.7,0,1.2-0.6,1.2-1.3c0-0.4-0.2-0.8-0.6-1l0,0
		c-0.1,0-0.2-0.1-0.3-0.1c-1.2-0.4-1.9-1.6-1.7-2.8c0-0.1,0-0.2,0-0.3l0,0c0-0.7-0.6-1.2-1.3-1.2c-0.4,0-0.8,0.2-1,0.6l0,0
		c0,0.1-0.1,0.2-0.1,0.3c-0.4,1.2-1.6,1.9-2.8,1.7c-0.1,0-0.2,0-0.3,0l0,0c-0.7,0-1.2,0.6-1.2,1.3c0,0.4,0.2,0.8,0.6,1l0,0
		C420.1,268.5,420.2,268.6,420.3,268.6z"/>
	<circle class="st14" cx="170.5" cy="107.6" r="4"/>
	<circle class="st13" cx="76.6" cy="87.1" r="4"/>
	<circle class="st15" cx="348.1" cy="70.2" r="4"/>
	<circle class="st14" cx="256.7" cy="306.7" r="4"/>
</g>
</svg>
